<svg xmlns="http://www.w3.org/2000/svg" xmlns:xlink="http://www.w3.org/1999/xlink" width="106" height="106" viewBox="0 0 106 106">
  <defs>
    <filter id="Trazado_982547" x="0" y="0" width="106" height="106" filterUnits="userSpaceOnUse">
      <feOffset dy="3" input="SourceAlpha"/>
      <feGaussianBlur stdDeviation="3" result="blur"/>
      <feFlood flood-opacity="0.161"/>
      <feComposite operator="in" in2="blur"/>
      <feComposite in="SourceGraphic"/>
    </filter>
  </defs>
  <g id="Grupo_1174770" data-name="Grupo 1174770" transform="translate(-171 -1382)">
    <g id="Grupo_1173169" data-name="Grupo 1173169" transform="translate(0 -2329)">
      <g id="Grupo_1172017" data-name="Grupo 1172017" transform="translate(0 2654)">
        <g id="Grupo_1167337" data-name="Grupo 1167337" transform="translate(180 1063)">
          <g id="Grupo_1166720" data-name="Grupo 1166720" transform="translate(0)">
            <g id="Grupo_1164305" data-name="Grupo 1164305">
              <g id="Grupo_1163948" data-name="Grupo 1163948">
                <g id="Grupo_1158168" data-name="Grupo 1158168">
                  <g id="Grupo_1152576" data-name="Grupo 1152576">
                    <g id="Grupo_1148633" data-name="Grupo 1148633">
                      <g id="Grupo_1148525" data-name="Grupo 1148525">
                        <g transform="matrix(1, 0, 0, 1, -9, -6)" filter="url(#Trazado_982547)">
                          <g id="Trazado_982547-2" data-name="Trazado 982547" transform="translate(9 6)" fill="#e9f9fd">
                            <path d="M 44 86.5 C 38.26187515258789 86.5 32.69618606567383 85.37651062011719 27.45755004882812 83.16075897216797 C 22.3968505859375 81.020263671875 17.85157585144043 77.95565032958984 13.94796276092529 74.05204010009766 C 10.04434967041016 70.1484375 6.979737281799316 65.6031494140625 4.839250087738037 60.54246139526367 C 2.62348747253418 55.30381393432617 1.5 49.73812484741211 1.5 44 C 1.5 38.26187515258789 2.62348747253418 32.69618606567383 4.839250087738037 27.45755004882812 C 6.979737281799316 22.3968505859375 10.04434967041016 17.85157585144043 13.94796276092529 13.94796276092529 C 17.85157585144043 10.04434967041016 22.3968505859375 6.979737281799316 27.45755004882812 4.839250087738037 C 32.69618606567383 2.62348747253418 38.26187515258789 1.5 44 1.5 C 49.73812484741211 1.5 55.30381393432617 2.62348747253418 60.54246139526367 4.839250087738037 C 65.6031494140625 6.979737281799316 70.1484375 10.04434967041016 74.05204010009766 13.94796276092529 C 77.95565032958984 17.85157585144043 81.020263671875 22.3968505859375 83.16075897216797 27.45755004882812 C 85.37651062011719 32.69618606567383 86.5 38.26187515258789 86.5 44 C 86.5 49.73812484741211 85.37651062011719 55.30381393432617 83.16075897216797 60.54246139526367 C 81.020263671875 65.6031494140625 77.95565032958984 70.1484375 74.05204010009766 74.05204010009766 C 70.1484375 77.95565032958984 65.6031494140625 81.020263671875 60.54246139526367 83.16075897216797 C 55.30381393432617 85.37651062011719 49.73812484741211 86.5 44 86.5 Z" stroke="none"/>
                            <path d="M 44 3 C 38.46371459960938 3 33.09462738037109 4.083610534667969 28.0418701171875 6.220756530761719 C 23.15997314453125 8.285614013671875 18.77495574951172 11.24228668212891 15.00862884521484 15.00862884521484 C 11.24228668212891 18.77495574951172 8.285614013671875 23.15997314453125 6.220756530761719 28.0418701171875 C 4.083610534667969 33.09462738037109 3 38.46371459960938 3 44 C 3 49.53628540039062 4.083610534667969 54.9053840637207 6.220756530761719 59.9581298828125 C 8.285614013671875 64.84002685546875 11.24228668212891 69.22504425048828 15.00862884521484 72.99138641357422 C 18.77495574951172 76.75771331787109 23.15997314453125 79.71438598632812 28.0418701171875 81.77925872802734 C 33.09462738037109 83.9163818359375 38.46371459960938 85 44 85 C 49.53628540039062 85 54.9053840637207 83.9163818359375 59.95814514160156 81.77925872802734 C 64.84002685546875 79.71438598632812 69.22504425048828 76.75771331787109 72.99138641357422 72.99138641357422 C 76.75771331787109 69.22504425048828 79.71438598632812 64.84002685546875 81.77925872802734 59.95814514160156 C 83.9163818359375 54.9053840637207 85 49.53628540039062 85 44 C 85 38.46371459960938 83.9163818359375 33.09462738037109 81.77925872802734 28.0418701171875 C 79.71438598632812 23.15997314453125 76.75771331787109 18.77495574951172 72.99138641357422 15.00862884521484 C 69.22504425048828 11.24228668212891 64.84002685546875 8.285614013671875 59.9581298828125 6.220756530761719 C 54.9053840637207 4.083610534667969 49.53628540039062 3 44 3 M 44 0 C 68.30054473876953 0 88 19.69947052001953 88 44 C 88 68.30054473876953 68.30054473876953 88 44 88 C 19.69947052001953 88 0 68.30054473876953 0 44 C 0 19.69947052001953 19.69947052001953 0 44 0 Z" stroke="none" fill="#1d7083"/>
                          </g>
                        </g>
                      </g>
                    </g>
                  </g>
                </g>
              </g>
            </g>
          </g>
        </g>
      </g>
    </g>
    <g id="inspire-idea_14781822_2_" data-name="inspire-idea_14781822 (2)" transform="translate(189.076 1397.299)">
      <g id="Grupo_1173876" data-name="Grupo 1173876" transform="translate(7.75 7.5)">
        <path id="Trazado_1030989" data-name="Trazado 1030989" d="M118.589,346.316v-3.98a2.42,2.42,0,0,0,1.967-2.378v-6.844h12.5v6.844a2.421,2.421,0,0,0,1.967,2.378l.34,3.428Z" transform="translate(-106.456 -297.472)" fill="#ca6e59"/>
        <path id="Trazado_1030990" data-name="Trazado 1030990" d="M61.975,18.273c0,7.876-4.238,17.231-15.028,14.137l-9-4.095a3.555,3.555,0,0,1-.234-5.257l.909-.251.628-.625A3.757,3.757,0,0,1,40,15.738a.331.331,0,0,0,.194-.386,3.566,3.566,0,0,1-.1-.839,3.471,3.471,0,0,1,3.433-3.507,3.436,3.436,0,0,1,.668.067,1.63,1.63,0,0,1,.259-.263,1.386,1.386,0,0,0,.576-1.21,3.869,3.869,0,0,1,5.42-.383.326.326,0,0,0,.49-.079,3.4,3.4,0,0,1,5.813,0,.327.327,0,0,0,.491.078,3.856,3.856,0,0,1,.771-.512C61.975,9.906,61.975,15.432,61.975,18.273Z" transform="translate(-33.495 -7.5)" fill="#73788c"/>
        <path id="Trazado_1030991" data-name="Trazado 1030991" d="M154.725,31.993a3.528,3.528,0,0,1-1.284,2.734l-10.3,5.6h-9.2l-3.3-1.5a16.174,16.174,0,0,0,11.067-23.7,3.831,3.831,0,0,1,1.743-.417,3.884,3.884,0,0,1,2.906,1.312l.181.883.655.589a3.434,3.434,0,0,1,.667-.067,3.471,3.471,0,0,1,3.434,3.507,3.585,3.585,0,0,1-.181,1.122,3.753,3.753,0,0,1,1.028,6.547A3.5,3.5,0,0,1,154.725,31.993Z" transform="translate(-117.188 -13.912)" fill="#5e6577"/>
        <path id="Trazado_1030992" data-name="Trazado 1030992" d="M69.946,200.752a5.993,5.993,0,0,0,4.565-5.82h0a2.383,2.383,0,0,0-2.383-2.383H69.946l-24.006,0H43.758a2.383,2.383,0,0,0-2.383,2.383h0a5.993,5.993,0,0,0,4.565,5.82Z" transform="translate(-37.694 -172.293)" fill="#ca6e59"/>
        <path id="Trazado_1030993" data-name="Trazado 1030993" d="M101.135,130.966a2.371,2.371,0,0,1,3.1,1.02,9.522,9.522,0,0,0,.794,1.206l.517.689c.219.639.707,3.625,1.383,3.625V146.6a7.584,7.584,0,0,1-2.59,5.709l-4.71,4.122a5.055,5.055,0,0,1-3.329,1.25H93.5a5.056,5.056,0,0,1-3.329-1.25l-4.71-4.122a7.584,7.584,0,0,1-2.59-5.709v-9.092a1.61,1.61,0,0,0,1.5-1.1l1.037-4.047a2.371,2.371,0,0,1,3.266-1.37l.151.072,1.22.468a13.51,13.51,0,0,0,9.667,0l1.22-.468Z" transform="translate(-74.652 -117.249)" fill="#d78878"/>
        <path id="Trazado_1030994" data-name="Trazado 1030994" d="M170.837,300.337c-2.6,0-2.712-2.4-2.669-3.266a.328.328,0,0,1,.328-.31h4.674a.327.327,0,0,1,.328.318C173.52,297.955,173.349,300.337,170.837,300.337Z" transform="translate(-150.603 -265.097)" fill="#eaf6ff"/>
        <path id="Trazado_1030995" data-name="Trazado 1030995" d="M14.949,440.241l-6.871-.016a.328.328,0,0,1-.328-.328v-6.1a.329.329,0,0,1,.176-.292,10.617,10.617,0,0,1,2.862-.985l.791-.159,6.982,2.59Z" transform="translate(-7.75 -385.854)" fill="#9be69d"/>
        <path id="Trazado_1030996" data-name="Trazado 1030996" d="M298.882,435.473l-2.65,4.325-9.149.007-3.31-5.8c.036-.037,6.692-2.127,6.692-2.127l.452.086a10.622,10.622,0,0,1,2.992,1.053Z" transform="translate(-253.558 -385.427)" fill="#9be69d"/>
        <path id="Trazado_1030997" data-name="Trazado 1030997" d="M123.356,418.39l1,5.023-3.614,4.375-10.973.013-4.162-4.588,1.552-4.8A11.239,11.239,0,0,0,123.356,418.39Z" transform="translate(-94.895 -373.414)" fill="#eaf6ff"/>
        <path id="Trazado_1030998" data-name="Trazado 1030998" d="M49.968,409.752,46.979,399a1.2,1.2,0,0,0-1.509-.828L38.826,400.2a.521.521,0,0,0-.325.71l1.4,3.174a.329.329,0,0,0,.227.187l3.415.783a.328.328,0,0,1,.2.508l-1.853,2.656a.328.328,0,0,0-.04.3l.446,1.234Z" transform="translate(-35.094 -355.366)" fill="#bbf49b"/>
        <path id="Trazado_1030999" data-name="Trazado 1030999" d="M243.879,409.535l2.993-10.76a1.2,1.2,0,0,1,1.509-.828l6.644,2.024a.522.522,0,0,1,.325.71l-1.4,3.174a.328.328,0,0,1-.227.187l-3.415.783a.328.328,0,0,0-.2.508l1.853,2.657a.328.328,0,0,1,.04.3l-.448,1.249Z" transform="translate(-218.032 -355.162)" fill="#bbf49b"/>
        <g id="Grupo_1173873" data-name="Grupo 1173873" transform="translate(40.521 29.693)">
          <path id="Trazado_1031000" data-name="Trazado 1031000" d="M390.939,387.922v4.21a12.816,12.816,0,0,1-.289,2.552,8.965,8.965,0,0,1-1.037,1.865c-.663,1.117-.373,2.266-.369,3.564l-.841.538h-8.3v-1.8a4.527,4.527,0,0,0-1.191-3.059,3.747,3.747,0,0,1-.984-2.529v-1.814a2.22,2.22,0,0,1,.948-1.819Z" transform="translate(-377.933 -375.974)" fill="#d78878"/>
          <g id="Grupo_1173872" data-name="Grupo 1173872" transform="translate(10.124 7.068)">
            <path id="Trazado_1031001" data-name="Trazado 1031001" d="M473.307,344.056v4.174a.875.875,0,0,1-.351.784c-.263.263-1.186-.139-1.586-.136l-.714-.763-.231-2.713.757-.585a1.468,1.468,0,0,1,1.43-1.466C473.094,343.529,473.307,343.777,473.307,344.056Z" transform="translate(-470.425 -343.35)" fill="#d78878"/>
            <path id="Trazado_1031002" data-name="Trazado 1031002" d="M481.8,344.807v3.3a1.469,1.469,0,0,1-2.657.863l-.094-.1a1.469,1.469,0,0,0,1.456-1.469V344.1a1.46,1.46,0,0,0-.213-.763h.039A1.468,1.468,0,0,1,481.8,344.807Z" transform="translate(-478.109 -343.34)" fill="#ca6e59"/>
          </g>
          <path id="Trazado_1031003" data-name="Trazado 1031003" d="M476.906,386.87v4.39a7.158,7.158,0,0,1-1.007,3.661,7.161,7.161,0,0,0-1.006,3.689l0,.774a.328.328,0,0,1-.328.33h-1.01l0-1.1a7.172,7.172,0,0,1,1.007-3.689,7.158,7.158,0,0,0,1.007-3.661v-4.2Z" transform="translate(-463.087 -375.037)" fill="#ca6e59"/>
          <path id="Trazado_1031004" data-name="Trazado 1031004" d="M391.574,281.44V293.3c0,.852-1.393,1.548-2.245,1.548l.724-1.934-1-.952V281.44a1.55,1.55,0,0,1,.913-1.41A1.432,1.432,0,0,1,391.574,281.44Z" transform="translate(-387.835 -279.892)" fill="#d78878"/>
          <path id="Trazado_1031005" data-name="Trazado 1031005" d="M417.862,332.261v3.89c0,.627-1.019,1.17-1.557,1.412a1.552,1.552,0,0,1-.916-1.412l-.378-.084v-3.673l.378-.134a1.551,1.551,0,0,1,.916-1.411C417.6,331.016,417.862,331.635,417.862,332.261Z" transform="translate(-410.952 -325.149)" fill="#d78878"/>
          <path id="Trazado_1031006" data-name="Trazado 1031006" d="M447.47,332.261v4.126c0,.626-1.133,1.169-1.671,1.411a1.55,1.55,0,0,1-.916-1.411l-.369-.235v-3.723l.369-.167a1.551,1.551,0,0,1,.916-1.411C447.267,331.049,447.47,331.635,447.47,332.261Z" transform="translate(-437.226 -325.149)" fill="#d78878"/>
          <path id="Trazado_1031007" data-name="Trazado 1031007" d="M399.7,280.318v11.226a.7.7,0,0,1-1.395,0V280.318a1.552,1.552,0,0,0-.912-1.41,1.524,1.524,0,0,1,.635-.138h.124A1.552,1.552,0,0,1,399.7,280.318Z" transform="translate(-395.264 -278.77)" fill="#ca6e59"/>
          <path id="Trazado_1031008" data-name="Trazado 1031008" d="M429.138,331.148v3.89a1.553,1.553,0,0,1-1.548,1.549h-.125a1.511,1.511,0,0,1-.632-.137,1.552,1.552,0,0,0,.916-1.412v-3.89a1.551,1.551,0,0,0-.916-1.411,1.512,1.512,0,0,1,.632-.137h.125A1.553,1.553,0,0,1,429.138,331.148Z" transform="translate(-421.481 -324.036)" fill="#ca6e59"/>
          <path id="Trazado_1031009" data-name="Trazado 1031009" d="M458.558,331.148v4.126a1.553,1.553,0,0,1-1.549,1.548h-.124a1.508,1.508,0,0,1-.632-.137,1.55,1.55,0,0,0,.915-1.411v-4.126a1.551,1.551,0,0,0-.915-1.411,1.509,1.509,0,0,1,.632-.137h.124A1.554,1.554,0,0,1,458.558,331.148Z" transform="translate(-447.681 -324.036)" fill="#ca6e59"/>
          <path id="Trazado_1031010" data-name="Trazado 1031010" d="M399.919,367.18a3.329,3.329,0,0,1-.071.681c-.288,1.377-2.336,1.548-3.787,1.7a4.631,4.631,0,0,0-2.744-.374c-.868.268-1.413,1.662-1.426,1.653l-2.842-1.486v-1.4l2.744-1.973a3.074,3.074,0,0,1,1.756-.572l4.555-.043A1.816,1.816,0,0,1,399.919,367.18Z" transform="translate(-387.833 -355.887)" fill="#ca6e59"/>
          <path id="Trazado_1031011" data-name="Trazado 1031011" d="M390.768,381.256l1.3-1.744a.328.328,0,0,1,.224-.13l2.8-.34a2.223,2.223,0,0,0,1.532-2.132.748.748,0,0,0-.753-.732h-4.121a2.782,2.782,0,0,0-1.6.5l-3.557,2.489Z" transform="translate(-385.647 -365.517)" fill="#d78878"/>
        </g>
        <g id="Grupo_1173875" data-name="Grupo 1173875" transform="translate(30.076 1.547)">
          <path id="Trazado_1031012" data-name="Trazado 1031012" d="M304.472,30.405a12.751,12.751,0,0,1-12.661,12.948c-2.31,0-7.381-1.695-8.04-3.536l.125-.5a.325.325,0,0,0-.029-.229,11.952,11.952,0,0,1,18.508-14.47A11.346,11.346,0,0,1,304.472,30.405Z" transform="translate(-282.516 -21.635)" fill="#eaf6ff"/>
          <path id="Trazado_1031013" data-name="Trazado 1031013" d="M307.369,60.362a11.971,11.971,0,0,1-17.941,7.644.326.326,0,0,0-.232-.043l-4.929.939a.329.329,0,0,1-.381-.4l1.1-4.433a12.89,12.89,0,0,0,18.6-15.2A11.923,11.923,0,0,1,307.369,60.362Z" transform="translate(-283.728 -45.884)" fill="#d8ecfe"/>
          <g id="Grupo_1173874" data-name="Grupo 1173874" transform="translate(5.784 2.978)">
            <path id="Trazado_1031014" data-name="Trazado 1031014" d="M346.284,55.653c0,3.2-3.364,6.3-6.632,6.3-.5,0-1.032.337-1.9-.942a6.963,6.963,0,0,0-.856-1.506,5.933,5.933,0,0,1,3.348-9.824C344.737,49.682,346.284,52.8,346.284,55.653Z" transform="translate(-335.361 -49.59)" fill="#ffe177"/>
            <path id="Trazado_1031015" data-name="Trazado 1031015" d="M365.221,54.77a5.912,5.912,0,0,1-1.51,3.953,7.163,7.163,0,0,0-1.437,4.271v.371l-5.973.019v-.328a10.027,10.027,0,0,0-.734-3.264,6.007,6.007,0,0,0,1.437.173c3.268,0,6.1-2.128,6.1-5.331a5.833,5.833,0,0,0-4.864-5.705,5.937,5.937,0,0,1,6.98,5.84Z" transform="translate(-353.356 -48.837)" fill="#ffd15b"/>
            <path id="Trazado_1031016" data-name="Trazado 1031016" d="M366.978,179.51l.929,1.813c0,.984-.59,1.813-2.709,1.813h-.465a1.781,1.781,0,0,1-1.781-1.781V179.51h4.027Z" transform="translate(-359.931 -165.206)" fill="#5e6577"/>
            <path id="Trazado_1031017" data-name="Trazado 1031017" d="M387.052,179.511v1.846a1.781,1.781,0,0,1-1.781,1.781h-1.8a1.78,1.78,0,0,0,1.78-1.781v-1.846Z" transform="translate(-378.208 -165.207)" fill="#4d5263"/>
            <path id="Trazado_1031018" data-name="Trazado 1031018" d="M354.589,160.63c0,.394.239.841,0,1.1a7.173,7.173,0,0,1-2.381.565h-4.381a1.378,1.378,0,0,1-1.323-1.428,1.488,1.488,0,0,1,.387-1.011,1.275,1.275,0,0,1,.936-.418h4.381C352.938,159.439,354.589,159.841,354.589,160.63Z" transform="translate(-345.284 -147.332)" fill="#73788c"/>
            <path id="Trazado_1031019" data-name="Trazado 1031019" d="M402.333,160.868a1.485,1.485,0,0,1-.387,1.01,1.275,1.275,0,0,1-.936.418h-2.4a1.273,1.273,0,0,0,.936-.418,1.485,1.485,0,0,0,.387-1.01,1.378,1.378,0,0,0-1.323-1.429h2.4A1.378,1.378,0,0,1,402.333,160.868Z" transform="translate(-391.688 -147.332)" fill="#5e6577"/>
          </g>
        </g>
      </g>
      <g id="Grupo_1173885" data-name="Grupo 1173885" transform="translate(7.75 7.5)">
        <g id="Grupo_1173877" data-name="Grupo 1173877" transform="translate(3.681 20.259)">
          <path id="Trazado_1031020" data-name="Trazado 1031020" d="M45.886,200.767a5.993,5.993,0,0,1-4.51-5.806h0a2.383,2.383,0,0,1,2.383-2.383h2.182" transform="translate(-41.376 -192.577)" fill="none" stroke="#000" stroke-linecap="round" stroke-linejoin="round" stroke-miterlimit="10" stroke-width="1"/>
          <path id="Trazado_1031021" data-name="Trazado 1031021" d="M307.228,232.041a6,6,0,0,1-4.171,3.862" transform="translate(-274.413 -227.721)" fill="none" stroke="#000" stroke-linecap="round" stroke-linejoin="round" stroke-miterlimit="10" stroke-width="1"/>
        </g>
        <path id="Trazado_1031022" data-name="Trazado 1031022" d="M209.872,132.289a13.509,13.509,0,0,0,2.937-.761l1.22-.468.2-.1a2.371,2.371,0,0,1,3.252,1.377" transform="translate(-187.748 -117.25)" fill="none" stroke="#000" stroke-linecap="round" stroke-linejoin="round" stroke-miterlimit="10" stroke-width="1"/>
        <path id="Trazado_1031023" data-name="Trazado 1031023" d="M106.926,142.054v4.674a7.584,7.584,0,0,1-2.59,5.709l-4.71,4.122a5.056,5.056,0,0,1-3.329,1.25H93.5a5.056,5.056,0,0,1-3.329-1.25l-4.71-4.122a7.584,7.584,0,0,1-2.59-5.709v-9.092a1.61,1.61,0,0,0,1.5-1.1l1.037-4.047a2.371,2.371,0,0,1,3.266-1.37l.151.072,1.22.467a13.5,13.5,0,0,0,2.918.758" transform="translate(-74.652 -117.381)" fill="none" stroke="#000" stroke-linecap="round" stroke-linejoin="round" stroke-miterlimit="10" stroke-width="1"/>
        <g id="Grupo_1173879" data-name="Grupo 1173879" transform="translate(13.301 19.218)">
          <g id="Grupo_1173878" data-name="Grupo 1173878" transform="translate(0)">
            <path id="Trazado_1031024" data-name="Trazado 1031024" d="M184.39,262.089a2.538,2.538,0,0,1-2.3,0" transform="translate(-176.307 -253.44)" fill="none" stroke="#000" stroke-linecap="round" stroke-linejoin="round" stroke-miterlimit="10" stroke-width="1"/>
            <path id="Trazado_1031025" data-name="Trazado 1031025" d="M133.475,183.612a4.378,4.378,0,0,0-4.209,0" transform="translate(-129.266 -183.073)" fill="none" stroke="#000" stroke-linecap="round" stroke-linejoin="round" stroke-miterlimit="10" stroke-width="1"/>
            <path id="Trazado_1031026" data-name="Trazado 1031026" d="M221.695,183.612a4.378,4.378,0,0,0-4.209,0" transform="translate(-207.829 -183.073)" fill="none" stroke="#000" stroke-linecap="round" stroke-linejoin="round" stroke-miterlimit="10" stroke-width="1"/>
            <line id="Línea_822" data-name="Línea 822" y1="1.865" transform="translate(11.761 3.161)" fill="none" stroke="#000" stroke-linecap="round" stroke-linejoin="round" stroke-miterlimit="10" stroke-width="1"/>
            <line id="Línea_823" data-name="Línea 823" y1="1.865" transform="translate(2.104 3.161)" fill="none" stroke="#000" stroke-linecap="round" stroke-linejoin="round" stroke-miterlimit="10" stroke-width="1"/>
          </g>
          <path id="Trazado_1031027" data-name="Trazado 1031027" d="M170.837,300.337c-3.172,0-2.642-3.577-2.642-3.577h5.283S173.915,300.337,170.837,300.337Z" transform="translate(-163.905 -284.316)" fill="none" stroke="#000" stroke-linecap="round" stroke-linejoin="round" stroke-miterlimit="10" stroke-width="1"/>
        </g>
        <path id="Trazado_1031028" data-name="Trazado 1031028" d="M66.778,12.234A3.384,3.384,0,0,0,63.5,11.073,3.94,3.94,0,0,0,59.76,8.288a3.877,3.877,0,0,0-2.81,1.21,3.4,3.4,0,0,0-6.2,0,3.877,3.877,0,0,0-2.81-1.21A3.94,3.94,0,0,0,44.2,11.073a3.382,3.382,0,0,0-.668-.067A3.47,3.47,0,0,0,40.1,14.513a3.569,3.569,0,0,0,.181,1.122,3.753,3.753,0,0,0-1.028,6.548,3.537,3.537,0,0,0-1.3,6.133" transform="translate(-33.499 -7.5)" fill="none" stroke="#000" stroke-linecap="round" stroke-linejoin="round" stroke-miterlimit="10" stroke-width="1"/>
        <path id="Trazado_1031029" data-name="Trazado 1031029" d="M61.876,142.269a3.436,3.436,0,0,1-1.549-.628" transform="translate(-54.572 -126.958)" fill="none" stroke="#000" stroke-linecap="round" stroke-linejoin="round" stroke-miterlimit="10" stroke-width="1"/>
        <path id="Trazado_1031030" data-name="Trazado 1031030" d="M105.6,40.2a3.258,3.258,0,0,1,2.065,1.372" transform="translate(-94.889 -36.62)" fill="none" stroke="#000" stroke-linecap="round" stroke-linejoin="round" stroke-miterlimit="10" stroke-width="1"/>
        <path id="Trazado_1031031" data-name="Trazado 1031031" d="M268.2,40.183a3.263,3.263,0,0,0-1.659,1.264" transform="translate(-238.218 -36.605)" fill="none" stroke="#000" stroke-linecap="round" stroke-linejoin="round" stroke-miterlimit="10" stroke-width="1"/>
        <path id="Trazado_1031032" data-name="Trazado 1031032" d="M303.763,34.039q-.055.347-.131.694a12.322,12.322,0,0,1-18.581,7.8l-5.72,1.09,1.412-5.718A12.291,12.291,0,0,1,289.539,20" transform="translate(-249.571 -18.634)" fill="none" stroke="#000" stroke-linecap="round" stroke-linejoin="round" stroke-miterlimit="10" stroke-width="1"/>
        <path id="Trazado_1031033" data-name="Trazado 1031033" d="M407.545,19.544q.442.063.885.159a12.3,12.3,0,0,1,9.549,10.1" transform="translate(-363.783 -18.226)" fill="none" stroke="#000" stroke-linecap="round" stroke-linejoin="round" stroke-miterlimit="10" stroke-width="1"/>
        <g id="Grupo_1173880" data-name="Grupo 1173880" transform="translate(35.86 4.528)">
          <path id="Trazado_1031034" data-name="Trazado 1031034" d="M337.934,60.765a7,7,0,0,0-1.044-2.009,5.926,5.926,0,1,1,8.81-.03,7.309,7.309,0,0,0-1.062,2.015" transform="translate(-335.355 -48.863)" fill="none" stroke="#000" stroke-linecap="round" stroke-linejoin="round" stroke-miterlimit="10" stroke-width="1"/>
          <line id="Línea_824" data-name="Línea 824" y1="4.357" transform="translate(5.926 7.521)" fill="none" stroke="#000" stroke-linecap="round" stroke-linejoin="round" stroke-miterlimit="10" stroke-width="1"/>
          <path id="Trazado_1031035" data-name="Trazado 1031035" d="M368.736,186.134v.674A2.189,2.189,0,0,1,366.547,189h-1.44a2.189,2.189,0,0,1-2.189-2.189v-.674" transform="translate(-359.901 -171.108)" fill="none" stroke="#000" stroke-linecap="round" stroke-linejoin="round" stroke-miterlimit="10" stroke-width="1"/>
          <path id="Trazado_1031036" data-name="Trazado 1031036" d="M356.263,160.68h-5.9a1.5,1.5,0,0,1-1.5-1.5v-.088a1.5,1.5,0,0,1,1.5-1.5h5.9a1.5,1.5,0,0,1,1.5,1.5v.088A1.5,1.5,0,0,1,356.263,160.68Z" transform="translate(-347.388 -145.693)" fill="none" stroke="#000" stroke-linecap="round" stroke-linejoin="round" stroke-miterlimit="10" stroke-width="1"/>
          <line id="Línea_825" data-name="Línea 825" x2="3.794" transform="translate(4.108 7.512)" fill="none" stroke="#000" stroke-linecap="round" stroke-linejoin="round" stroke-miterlimit="10" stroke-width="1"/>
        </g>
        <path id="Trazado_1031037" data-name="Trazado 1031037" d="M346.53,432.195l.275.052A10.6,10.6,0,0,1,349.8,433.3" transform="translate(-309.447 -385.707)" fill="none" stroke="#000" stroke-linecap="round" stroke-linejoin="round" stroke-miterlimit="10" stroke-width="1"/>
        <path id="Trazado_1031038" data-name="Trazado 1031038" d="M250.768,358.351v4.082a2.421,2.421,0,0,0,1.967,2.378" transform="translate(-224.167 -319.947)" fill="none" stroke="#000" stroke-linecap="round" stroke-linejoin="round" stroke-miterlimit="10" stroke-width="1"/>
        <path id="Trazado_1031039" data-name="Trazado 1031039" d="M118.589,417.362h0a11.242,11.242,0,0,0,16.436,0h0" transform="translate(-106.456 -372.498)" fill="none" stroke="#000" stroke-linecap="round" stroke-linejoin="round" stroke-miterlimit="10" stroke-width="1"/>
        <path id="Trazado_1031040" data-name="Trazado 1031040" d="M11.22,366.524l-.431.086a10.6,10.6,0,0,0-3.039,1.079m14.1-9.338v4.082a2.421,2.421,0,0,1-1.967,2.378l-.126.024" transform="translate(-7.75 -319.947)" fill="none" stroke="#000" stroke-linecap="round" stroke-linejoin="round" stroke-miterlimit="10" stroke-width="1"/>
        <g id="Grupo_1173881" data-name="Grupo 1173881" transform="translate(3.06 42.758)">
          <path id="Trazado_1031041" data-name="Trazado 1031041" d="M45.945,405.18,44.227,399a1.2,1.2,0,0,0-1.509-.828L36.074,400.2a.521.521,0,0,0-.325.71l1.468,3.324,4.05.929-2.229,3.194.505,1.409" transform="translate(-35.703 -398.124)" fill="none" stroke="#000" stroke-linecap="round" stroke-linejoin="round" stroke-miterlimit="10" stroke-width="1"/>
          <line id="Línea_826" data-name="Línea 826" x1="0.249" y1="0.896" transform="translate(11.268 10.748)" fill="none" stroke="#000" stroke-linecap="round" stroke-linejoin="round" stroke-miterlimit="10" stroke-width="1"/>
          <path id="Trazado_1031042" data-name="Trazado 1031042" d="M244.868,409.769l2.994-10.763a1.2,1.2,0,0,1,1.509-.828l6.645,2.024a.522.522,0,0,1,.325.71l-1.468,3.325-4.05.929,2.229,3.195-.505,1.409" transform="translate(-221.973 -398.125)" fill="none" stroke="#000" stroke-linecap="round" stroke-linejoin="round" stroke-miterlimit="10" stroke-width="1"/>
        </g>
        <g id="Grupo_1173884" data-name="Grupo 1173884" transform="translate(40.528 29.725)">
          <g id="Grupo_1173882" data-name="Grupo 1173882" transform="translate(10.882 7.068)">
            <path id="Trazado_1031043" data-name="Trazado 1031043" d="M480.35,345.093a1.467,1.467,0,0,0-1.467-1.467h0a1.469,1.469,0,0,0-1.469,1.469v3.295a1.469,1.469,0,0,0,1.469,1.469h0a1.469,1.469,0,0,0,1.469-1.469Z" transform="translate(-477.412 -343.626)" fill="none" stroke="#000" stroke-linecap="round" stroke-linejoin="round" stroke-miterlimit="10" stroke-width="1"/>
            <path id="Trazado_1031044" data-name="Trazado 1031044" d="M490.831,400.563" transform="translate(-489.362 -394.331)" fill="none" stroke="#000" stroke-linecap="round" stroke-linejoin="round" stroke-miterlimit="10" stroke-width="1"/>
          </g>
          <g id="Grupo_1173883" data-name="Grupo 1173883" transform="translate(11.806 11.874)">
            <path id="Trazado_1031045" data-name="Trazado 1031045" d="M487.871,387.53v4.39a7.13,7.13,0,0,1-1.007,3.622h0a7.165,7.165,0,0,0-1.007,3.689l0,1.1" transform="translate(-485.858 -387.53)" fill="none" stroke="#000" stroke-linecap="round" stroke-linejoin="round" stroke-miterlimit="10" stroke-width="1"/>
          </g>
          <path id="Trazado_1031046" data-name="Trazado 1031046" d="M433.859,414.75a6.005,6.005,0,0,1,1.282,5.491l-.045.175" transform="translate(-427.745 -399.897)" fill="none" stroke="#000" stroke-linecap="round" stroke-linejoin="round" stroke-miterlimit="10" stroke-width="1"/>
          <path id="Trazado_1031047" data-name="Trazado 1031047" d="M389.115,292.454V280.6a1.552,1.552,0,0,1,1.548-1.548h.124a1.552,1.552,0,0,1,1.548,1.548v9.628" transform="translate(-387.898 -279.057)" fill="none" stroke="#000" stroke-linecap="round" stroke-linejoin="round" stroke-miterlimit="10" stroke-width="1"/>
          <path id="Trazado_1031048" data-name="Trazado 1031048" d="M418.532,331.441a1.552,1.552,0,0,1,1.548-1.548h.124a1.552,1.552,0,0,1,1.548,1.548v3.523" transform="translate(-414.095 -324.328)" fill="none" stroke="#000" stroke-linecap="round" stroke-linejoin="round" stroke-miterlimit="10" stroke-width="1"/>
          <path id="Trazado_1031049" data-name="Trazado 1031049" d="M447.947,334.927v-3.486a1.552,1.552,0,0,1,1.548-1.548h.124a1.552,1.552,0,0,1,1.548,1.548v1.478" transform="translate(-440.29 -324.328)" fill="none" stroke="#000" stroke-linecap="round" stroke-linejoin="round" stroke-miterlimit="10" stroke-width="1"/>
          <path id="Trazado_1031050" data-name="Trazado 1031050" d="M383.12,381.545l1.38-1.857,2.765-.357a2.223,2.223,0,0,0,1.532-2.112.752.752,0,0,0-.753-.752H384.1a2.782,2.782,0,0,0-1.6.5l-3.557,2.489a2.222,2.222,0,0,0-.948,1.82v1.813a3.743,3.743,0,0,0,.984,2.528,4.528,4.528,0,0,1,1.191,3.06v1.8" transform="translate(-377.999 -365.805)" fill="none" stroke="#000" stroke-linecap="round" stroke-linejoin="round" stroke-miterlimit="10" stroke-width="1"/>
        </g>
      </g>
    </g>
  </g>
</svg>
