<svg xmlns="http://www.w3.org/2000/svg" xmlns:xlink="http://www.w3.org/1999/xlink" width="108" height="108" viewBox="0 0 108 108">
  <defs>
    <filter id="Trazado_904820" x="0" y="0" width="108" height="108" filterUnits="userSpaceOnUse">
      <feOffset dy="3" input="SourceAlpha"/>
      <feGaussianBlur stdDeviation="3" result="blur"/>
      <feFlood flood-opacity="0.161"/>
      <feComposite operator="in" in2="blur"/>
      <feComposite in="SourceGraphic"/>
    </filter>
  </defs>
  <g id="Grupo_1174811" data-name="Grupo 1174811" transform="translate(-171 -1180)">
    <g id="Grupo_1174807" data-name="Grupo 1174807" transform="translate(180 1186)">
      <g id="Grupo_1173585" data-name="Grupo 1173585" transform="translate(0 0)">
        <g id="Grupo_1173428" data-name="Grupo 1173428">
          <g id="Grupo_1171958" data-name="Grupo 1171958">
            <g id="Grupo_1167341" data-name="Grupo 1167341">
              <g id="Grupo_1166792" data-name="Grupo 1166792">
                <g transform="matrix(1, 0, 0, 1, -9, -6)" filter="url(#Trazado_904820)">
                  <g id="Trazado_904820-2" data-name="Trazado 904820" transform="translate(9 6)" fill="#e9f9fd">
                    <path d="M 44.99999618530273 88.50004577636719 C 39.12687301635742 88.50004577636719 33.43022155761719 87.35012054443359 28.06829643249512 85.08220672607422 C 22.88852119445801 82.89134216308594 18.23629570007324 79.75463104248047 14.24084663391113 75.75917816162109 C 10.24540901184082 71.76371765136719 7.108683586120605 67.11149597167969 4.917821407318115 61.93173217773438 C 2.649921178817749 56.56979370117188 1.499996185302734 50.87314224243164 1.499996185302734 45.00001907348633 C 1.499996185302734 39.12689590454102 2.649921178817749 33.43024444580078 4.917821407318115 28.06830596923828 C 7.108683586120605 22.88853073120117 10.24540901184082 18.23631858825684 14.24084663391113 14.24086952209473 C 18.23629570007324 10.2454195022583 22.88852119445801 7.108694076538086 28.06829643249512 4.917831420898438 C 33.43022155761719 2.649931669235229 39.12687301635742 1.500006556510925 44.99999618530273 1.500006556510925 C 50.87311935424805 1.500006556510925 56.56977081298828 2.649931669235229 61.93169784545898 4.917831420898438 C 67.11147308349609 7.108694076538086 71.76369476318359 10.2454195022583 75.75914764404297 14.24086952209473 C 79.75458526611328 18.23631858825684 82.89131164550781 22.88853073120117 85.08216857910156 28.06830596923828 C 87.35007476806641 33.43024444580078 88.5 39.12689590454102 88.5 45.00001907348633 C 88.5 50.87314224243164 87.35007476806641 56.56979370117188 85.08216857910156 61.93173217773438 C 82.89131164550781 67.11149597167969 79.75458526611328 71.76371765136719 75.75914764404297 75.75917816162109 C 71.76369476318359 79.75463104248047 67.11147308349609 82.89134216308594 61.93169784545898 85.08220672607422 C 56.56977081298828 87.35012054443359 50.87311935424805 88.50004577636719 44.99999618530273 88.50004577636719 Z" stroke="none"/>
                    <path d="M 44.99999618530273 3.000007629394531 C 39.32870864868164 3.000007629394531 33.82865142822266 4.110061645507812 28.65262603759766 6.299346923828125 C 23.65165710449219 8.414573669433594 19.15968322753906 11.44334411621094 15.301513671875 15.30152130126953 C 11.44333648681641 19.15969085693359 8.414566040039062 23.65166473388672 6.299339294433594 28.65263366699219 C 4.110054016113281 33.82867431640625 2.999992370605469 39.32873153686523 2.999992370605469 45.00001907348633 C 2.999992370605469 50.67130661010742 4.110054016113281 56.17136383056641 6.299339294433594 61.34738922119141 C 8.414566040039062 66.34837341308594 11.44333648681641 70.84033203125 15.301513671875 74.69850158691406 C 19.15968322753906 78.55668640136719 23.65165710449219 81.58546447753906 28.65262603759766 83.70069122314453 C 33.82865142822266 85.88997650146484 39.32870864868164 87.00003051757812 44.99999618530273 87.00003051757812 C 50.67128372192383 87.00003051757812 56.17134094238281 85.88997650146484 61.34736633300781 83.70069122314453 C 66.34834289550781 81.58546447753906 70.84030914306641 78.55668640136719 74.69847869873047 74.69850158691406 C 78.55665588378906 70.84033203125 81.58542633056641 66.34837341308594 83.70065307617188 61.34738922119141 C 85.88993835449219 56.17136383056641 87 50.67130661010742 87 45.00001907348633 C 87 39.32873153686523 85.88993835449219 33.82867431640625 83.70065307617188 28.65263366699219 C 81.58542633056641 23.65166473388672 78.55665588378906 19.15969085693359 74.69847869873047 15.30152130126953 C 70.84030914306641 11.44334411621094 66.34834289550781 8.414573669433594 61.34736633300781 6.299346923828125 C 56.17134094238281 4.110061645507812 50.67128372192383 3.000007629394531 44.99999618530273 3.000007629394531 M 44.99999618530273 7.62939453125e-06 C 69.85281372070312 7.62939453125e-06 90 20.14719390869141 90 45.00001907348633 C 90 69.85282897949219 69.85281372070312 90.00003051757812 44.99999618530273 90.00003051757812 C 20.14717864990234 90.00003051757812 -7.62939453125e-06 69.85282897949219 -7.62939453125e-06 45.00001907348633 C -7.62939453125e-06 20.14719390869141 20.14717864990234 7.62939453125e-06 44.99999618530273 7.62939453125e-06 Z" stroke="none" fill="#1d7083"/>
                  </g>
                </g>
              </g>
            </g>
          </g>
        </g>
      </g>
    </g>
    <g id="risk_18558969" transform="translate(193.302 1198.588)">
      <g id="Grupo_1174810" data-name="Grupo 1174810" transform="translate(5.865 1.575)">
        <path id="Trazado_1034742" data-name="Trazado 1034742" d="M23.168,61.575l-4.384,4.384,9.5,9.5c.405-.386.811-.792.869-.83A11.415,11.415,0,0,1,36.9,71.772h7.571A9.508,9.508,0,0,0,51.015,69.3l12.823-11.24a2,2,0,0,0,0-2.994,4.013,4.013,0,0,0-5.234,0L48.7,63.738a2.123,2.123,0,0,0-.019-.347,3.977,3.977,0,0,0-3.94-3.438H38.715a6.94,6.94,0,0,1-2.646-.522,12.373,12.373,0,0,0-12.9,2.144Z" transform="translate(-12.855 -18.606)" fill="#ffc7b3" fill-rule="evenodd"/>
        <path id="Trazado_1034743" data-name="Trazado 1034743" d="M10.082,74.6,21.765,86.281l4.79-4.77-11.684-11.7Z" transform="translate(-10.082 -23.613)" fill="#7676ff" fill-rule="evenodd"/>
        <path id="Trazado_1034744" data-name="Trazado 1034744" d="M50.061,3.568l-5.89,10.216-5.89,10.2a3.031,3.031,0,0,0,0,3.128,3,3,0,0,0,2.7,1.564H64.565a3,3,0,0,0,2.7-1.564,3.031,3.031,0,0,0,0-3.128l-5.89-10.2L55.489,3.568a3.135,3.135,0,0,0-5.427,0Z" transform="translate(-18.931 -2.003)" fill="#ffb53b" fill-rule="evenodd"/>
        <path id="Trazado_1034745" data-name="Trazado 1034745" d="M29.615,28.248a8.3,8.3,0,1,1,0,11.723,8.3,8.3,0,0,1,0-11.723Z" transform="translate(-15.537 -9.592)" fill="#7676ff" fill-rule="evenodd"/>
        <path id="Trazado_1034746" data-name="Trazado 1034746" d="M46.11,46.5l1.758-1.776,2.105,2.105L48.215,48.6Z" transform="translate(-21.564 -15.618)" fill="#7676ff" fill-rule="evenodd"/>
        <path id="Trazado_1034747" data-name="Trazado 1034747" d="M48.492,49.845,51.234,47.1l5.678,5.659a1.953,1.953,0,0,1-2.762,2.762Z" transform="translate(-22.324 -16.377)" fill="#7676ff" fill-rule="evenodd"/>
        <path id="Trazado_1034748" data-name="Trazado 1034748" d="M32.758,31.37a5.626,5.626,0,1,1,0,7.957A5.654,5.654,0,0,1,32.758,31.37Z" transform="translate(-16.788 -10.841)" fill="#dfe7f4" fill-rule="evenodd"/>
        <path id="Trazado_1034749" data-name="Trazado 1034749" d="M60.276,23.112H57.514l-.463-8.71a1.844,1.844,0,1,1,3.689,0Z" transform="translate(-25.05 -5.364)" fill="#f92174" fill-rule="evenodd"/>
        <path id="Trazado_1034750" data-name="Trazado 1034750" d="M59.041,34.913a1.545,1.545,0,1,0-1.564-1.545A1.55,1.55,0,0,0,59.041,34.913Z" transform="translate(-25.187 -11.507)" fill="#f92174" fill-rule="evenodd"/>
      </g>
      <path id="Trazado_1034751" data-name="Trazado 1034751" d="M9.082,52.669a.678.678,0,0,0,.2.482L20.965,64.834a.682.682,0,0,0,.963,0l4.789-4.77a.682.682,0,0,0,0-.964l-.553-.554c.15-.146.266-.26.275-.272a.685.685,0,0,0,.067-.05,10.738,10.738,0,0,1,7.3-2.693h7.571a10.123,10.123,0,0,0,7-2.641L61.194,41.654a2.677,2.677,0,0,0,0-4.025,4.709,4.709,0,0,0-6.125,0l-9.008,7.885a4.682,4.682,0,0,0-4.409-3.166H35.622a6.2,6.2,0,0,1-2.385-.469A13.133,13.133,0,0,0,19.6,44.173L18.05,45.718a.681.681,0,0,0,.963.963l1.514-1.515a11.758,11.758,0,0,1,12.2-2.021,7.613,7.613,0,0,0,2.895.569h6.025a3.312,3.312,0,0,1,3.265,2.847,1.313,1.313,0,0,1-1.294,1.488H31.74a.681.681,0,1,0,0,1.363H43.617a2.623,2.623,0,0,0,2.021-.929,2.581,2.581,0,0,0,.6-1.316l9.719-8.506a3.339,3.339,0,0,1,4.338,0,1.314,1.314,0,0,1,0,1.967L47.472,51.87a8.82,8.82,0,0,1-6.095,2.3h-7.57a12.046,12.046,0,0,0-8.171,3.007c-.067.052-.164.145-.433.407L15.034,47.4a.68.68,0,0,0-.963,0L9.282,52.187a.681.681,0,0,0-.2.482Zm5.47-3.825L24.7,59.006l0,0,0,0,.568.57L21.447,63.39,10.727,52.669ZM45.475,8.99a2.568,2.568,0,0,0-1.857-.8A2.594,2.594,0,0,0,41.74,9a2.357,2.357,0,0,0-.656,1.764l.463,8.71a.681.681,0,0,0,.681.645H44.99a.682.682,0,0,0,.681-.645l.463-8.707a2.374,2.374,0,0,0-.659-1.771Zm-1.132,9.761h-1.47l-.429-8.067a1.006,1.006,0,0,1,.286-.753,1.244,1.244,0,0,1,1.754,0,1.019,1.019,0,0,1,.288.76Zm-.726,2.568a2.226,2.226,0,1,0,2.226,2.226,2.239,2.239,0,0,0-2.226-2.226Zm0,3.09a.864.864,0,1,1,0-1.728.864.864,0,0,1,0,1.728ZM33.555,15.923a.681.681,0,0,1-.236-.934l.541-.907a.681.681,0,1,1,1.17.7l-.54.907a.682.682,0,0,1-.586.332.67.67,0,0,1-.349-.1Zm.616,5.807a6.3,6.3,0,1,0,0,8.92,6.292,6.292,0,0,0,0-8.92Zm-.959,7.956a4.934,4.934,0,1,1,0-6.993A4.939,4.939,0,0,1,33.211,29.686Zm5-.651H55.4a3.81,3.81,0,0,0,3.293-5.715L46.911,2.909a3.815,3.815,0,0,0-6.606,0l-4.268,7.4a.681.681,0,1,0,1.18.681l4.268-7.4a2.454,2.454,0,0,1,4.246,0L57.512,24a2.345,2.345,0,0,1,0,2.456A2.315,2.315,0,0,1,55.4,27.673H38.551a8.942,8.942,0,1,0-4,6.079l.905.915,0,0a.681.681,0,0,0,0,.963l5.659,5.679a2.652,2.652,0,0,0,3.725,0,2.658,2.658,0,0,0,0-3.726l-5.678-5.659a.681.681,0,0,0-.963,0l-.011.011-.909-.909a8.971,8.971,0,0,0,.941-1.995Zm5.65,9.509a1.289,1.289,0,0,1,.006,1.8,1.321,1.321,0,0,1-1.8,0l-5.179-5.2,1.78-1.78ZM24.325,31.583A7.654,7.654,0,1,1,29.714,33.8,7.634,7.634,0,0,1,24.325,31.583ZM37.211,32.9l-.8.805-.769-.777c.142-.125.287-.246.422-.381s.251-.277.374-.417Z" transform="translate(-3.898 -0.109)"/>
    </g>
  </g>
</svg>
