<svg xmlns="http://www.w3.org/2000/svg" xmlns:xlink="http://www.w3.org/1999/xlink" width="108" height="108" viewBox="0 0 108 108">
  <defs>
    <filter id="Trazado_904820" x="0" y="0" width="108" height="108" filterUnits="userSpaceOnUse">
      <feOffset dy="3" input="SourceAlpha"/>
      <feGaussianBlur stdDeviation="3" result="blur"/>
      <feFlood flood-opacity="0.161"/>
      <feComposite operator="in" in2="blur"/>
      <feComposite in="SourceGraphic"/>
    </filter>
  </defs>
  <g id="Grupo_1174812" data-name="Grupo 1174812" transform="translate(-171 -1180)">
    <g id="Grupo_1174807" data-name="Grupo 1174807" transform="translate(180 1186)">
      <g id="Grupo_1173585" data-name="Grupo 1173585" transform="translate(0 0)">
        <g id="Grupo_1173428" data-name="Grupo 1173428">
          <g id="Grupo_1171958" data-name="Grupo 1171958">
            <g id="Grupo_1167341" data-name="Grupo 1167341">
              <g id="Grupo_1166792" data-name="Grupo 1166792">
                <g transform="matrix(1, 0, 0, 1, -9, -6)" filter="url(#Trazado_904820)">
                  <g id="Trazado_904820-2" data-name="Trazado 904820" transform="translate(9 6)" fill="#e9f9fd">
                    <path d="M 44.99999618530273 88.50004577636719 C 39.12687301635742 88.50004577636719 33.43022155761719 87.35012054443359 28.06829643249512 85.08220672607422 C 22.88852119445801 82.89134216308594 18.23629570007324 79.75463104248047 14.24084663391113 75.75917816162109 C 10.24540901184082 71.76371765136719 7.108683586120605 67.11149597167969 4.917821407318115 61.93173217773438 C 2.649921178817749 56.56979370117188 1.499996185302734 50.87314224243164 1.499996185302734 45.00001907348633 C 1.499996185302734 39.12689590454102 2.649921178817749 33.43024444580078 4.917821407318115 28.06830596923828 C 7.108683586120605 22.88853073120117 10.24540901184082 18.23631858825684 14.24084663391113 14.24086952209473 C 18.23629570007324 10.2454195022583 22.88852119445801 7.108694076538086 28.06829643249512 4.917831420898438 C 33.43022155761719 2.649931669235229 39.12687301635742 1.500006556510925 44.99999618530273 1.500006556510925 C 50.87311935424805 1.500006556510925 56.56977081298828 2.649931669235229 61.93169784545898 4.917831420898438 C 67.11147308349609 7.108694076538086 71.76369476318359 10.2454195022583 75.75914764404297 14.24086952209473 C 79.75458526611328 18.23631858825684 82.89131164550781 22.88853073120117 85.08216857910156 28.06830596923828 C 87.35007476806641 33.43024444580078 88.5 39.12689590454102 88.5 45.00001907348633 C 88.5 50.87314224243164 87.35007476806641 56.56979370117188 85.08216857910156 61.93173217773438 C 82.89131164550781 67.11149597167969 79.75458526611328 71.76371765136719 75.75914764404297 75.75917816162109 C 71.76369476318359 79.75463104248047 67.11147308349609 82.89134216308594 61.93169784545898 85.08220672607422 C 56.56977081298828 87.35012054443359 50.87311935424805 88.50004577636719 44.99999618530273 88.50004577636719 Z" stroke="none"/>
                    <path d="M 44.99999618530273 3.000007629394531 C 39.32870864868164 3.000007629394531 33.82865142822266 4.110061645507812 28.65262603759766 6.299346923828125 C 23.65165710449219 8.414573669433594 19.15968322753906 11.44334411621094 15.301513671875 15.30152130126953 C 11.44333648681641 19.15969085693359 8.414566040039062 23.65166473388672 6.299339294433594 28.65263366699219 C 4.110054016113281 33.82867431640625 2.999992370605469 39.32873153686523 2.999992370605469 45.00001907348633 C 2.999992370605469 50.67130661010742 4.110054016113281 56.17136383056641 6.299339294433594 61.34738922119141 C 8.414566040039062 66.34837341308594 11.44333648681641 70.84033203125 15.301513671875 74.69850158691406 C 19.15968322753906 78.55668640136719 23.65165710449219 81.58546447753906 28.65262603759766 83.70069122314453 C 33.82865142822266 85.88997650146484 39.32870864868164 87.00003051757812 44.99999618530273 87.00003051757812 C 50.67128372192383 87.00003051757812 56.17134094238281 85.88997650146484 61.34736633300781 83.70069122314453 C 66.34834289550781 81.58546447753906 70.84030914306641 78.55668640136719 74.69847869873047 74.69850158691406 C 78.55665588378906 70.84033203125 81.58542633056641 66.34837341308594 83.70065307617188 61.34738922119141 C 85.88993835449219 56.17136383056641 87 50.67130661010742 87 45.00001907348633 C 87 39.32873153686523 85.88993835449219 33.82867431640625 83.70065307617188 28.65263366699219 C 81.58542633056641 23.65166473388672 78.55665588378906 19.15969085693359 74.69847869873047 15.30152130126953 C 70.84030914306641 11.44334411621094 66.34834289550781 8.414573669433594 61.34736633300781 6.299346923828125 C 56.17134094238281 4.110061645507812 50.67128372192383 3.000007629394531 44.99999618530273 3.000007629394531 M 44.99999618530273 7.62939453125e-06 C 69.85281372070312 7.62939453125e-06 90 20.14719390869141 90 45.00001907348633 C 90 69.85282897949219 69.85281372070312 90.00003051757812 44.99999618530273 90.00003051757812 C 20.14717864990234 90.00003051757812 -7.62939453125e-06 69.85282897949219 -7.62939453125e-06 45.00001907348633 C -7.62939453125e-06 20.14719390869141 20.14717864990234 7.62939453125e-06 44.99999618530273 7.62939453125e-06 Z" stroke="none" fill="#1d7083"/>
                  </g>
                </g>
              </g>
            </g>
          </g>
        </g>
      </g>
    </g>
    <g id="reporting_13089661" transform="translate(172.279 1186.217)">
      <path id="Trazado_1034752" data-name="Trazado 1034752" d="M62.9,20.16h5.731a6.278,6.278,0,0,1,6.263,6.263v8.158l1.689-2.047a4.269,4.269,0,0,1,2.292-1.463,2.861,2.861,0,0,1,2.508.523l2.085,1.721a2.859,2.859,0,0,1,.99,2.363,4.266,4.266,0,0,1-1,2.528L74.891,48.582V67.3a6.278,6.278,0,0,1-6.263,6.263H36.591A6.278,6.278,0,0,1,30.328,67.3V26.423a6.278,6.278,0,0,1,6.263-6.263h5.731v-.642a.872.872,0,0,1,.872-.872h4.47a4.05,4.05,0,0,1,1.621-1.762,6.693,6.693,0,0,1,6.65,0,4.05,4.05,0,0,1,1.621,1.762h4.47a.872.872,0,0,1,.872.872Z" transform="translate(0 0)" fill="#121209" fill-rule="evenodd"/>
      <path id="Trazado_1034753" data-name="Trazado 1034753" d="M78.166,123.513a.872.872,0,1,1,0-1.744h21.5l.475-3.723a.862.862,0,0,1,.109-.337l0-.006.009-.015h0l0-.005.006-.01,0-.005,0-.005,0-.005,0-.005,0-.005a.867.867,0,0,1,.106-.133L107.426,109V94.621a1.135,1.135,0,0,0-1.129-1.129h-5.73v.626a.872.872,0,0,1-.872.872H80.862a.872.872,0,0,1-.872-.872v-.626h-5.73a1.135,1.135,0,0,0-1.129,1.129V135.5a1.135,1.135,0,0,0,1.129,1.129h25.966v-4.683a2.88,2.88,0,0,1,2.874-2.874h4.327V123l-.18.218a.867.867,0,0,1-.435.316l-6.383,2.1v0a.869.869,0,0,1-1.131-.935l.151-1.181Zm14.7-22.963,3.559,6.164c.009.016.018.032.026.048l3.533,6.12a2.987,2.987,0,0,1-2.592,4.49H83.16a2.979,2.979,0,0,1-2.592-4.49l3.561-6.167h0l3.559-6.164a2.976,2.976,0,0,1,1.09-1.1l.059-.031a2.985,2.985,0,0,1,4.035,1.132Zm-14.7,32.431a.872.872,0,1,1,0-1.744H95.7a.872.872,0,1,1,0,1.744Zm0-4.734a.872.872,0,1,1,0-1.744H102.39a.872.872,0,1,1,0,1.744Z" transform="translate(-37.669 -68.198)" fill="#fff" fill-rule="evenodd"/>
      <path id="Trazado_1034754" data-name="Trazado 1034754" d="M78.166,203.879a.872.872,0,1,1,0-1.744h21.5l.475-3.723a.862.862,0,0,1,.109-.337l0-.006.009-.015h0l0-.005.006-.01,0-.005,0-.005,0-.005,0-.005,0-.005a.868.868,0,0,1,.106-.133l3.521-4.265a28.794,28.794,0,0,0-6.713-5.18l2.781,4.817a2.987,2.987,0,0,1-2.592,4.49H83.16a2.979,2.979,0,0,1-2.592-4.49l3.561-6.167h0l1.266-2.192q-1.061-.079-2.143-.08a28.607,28.607,0,0,0-10.12,1.839v29.22A1.135,1.135,0,0,0,74.259,217h25.966v-4.683a2.88,2.88,0,0,1,2.874-2.874h4.327v-6.076l-.18.218a.867.867,0,0,1-.435.316l-6.383,2.1v0a.869.869,0,0,1-1.131-.935l.151-1.181Zm0,9.468a.872.872,0,1,1,0-1.744H95.7a.872.872,0,1,1,0,1.744Zm0-4.734a.872.872,0,1,1,0-1.744H102.39a.872.872,0,1,1,0,1.744Z" transform="translate(-37.669 -148.564)" fill="#f0eef0" fill-rule="evenodd"/>
      <path id="Trazado_1034755" data-name="Trazado 1034755" d="M307.26,313.576a.868.868,0,0,1-.019.152l-.091.718,3.87-1.271q-.142-.153-.292-.306a16.866,16.866,0,0,0-2.7-2.232q-.179-.118-.358-.23Z" transform="translate(-243.622 -259.099)" fill="#cbcacd" fill-rule="evenodd"/>
      <path id="Trazado_1034756" data-name="Trazado 1034756" d="M76.237,113.508H49.392a2.88,2.88,0,0,1-2.874-2.874V69.753a2.88,2.88,0,0,1,2.874-2.874h5.731V65.235H49.392a4.533,4.533,0,0,0-4.518,4.518v40.881a4.533,4.533,0,0,0,4.518,4.518H81.43a4.533,4.533,0,0,0,4.518-4.518V94.025L84.3,96.017v9.062a.87.87,0,0,1-.285.645L76.9,113.191l-.011.013,0,0,0,0-.01.012,0,0-.01.011,0,0,0,0-.012.012h0l-.012.012,0,0h0l-.012.012,0,0,0,0-.009.008h0l0,0-.012.01,0,0,0,0-.012.009,0,0h0l-.013.01h0l0,0-.012.009,0,0h0l-.01.007-.007,0,0,0-.01.006,0,0-.011.007,0,0h0l-.012.007-.006,0-.013.007-.007,0h0l-.01.006h0l-.014.007,0,0,0,0-.012.005-.006,0-.015.006-.005,0h0l-.011,0h-.006l-.017.006h0l-.014,0H76.51l-.015,0-.007,0-.014,0-.005,0-.016,0h-.006l-.016,0h0l-.015,0h-.007l-.012,0h-.012l-.012,0H76.36l-.016,0h0l-.015,0h-.076Z" transform="translate(-12.802 -43.33)" fill="#6aa8dc" fill-rule="evenodd"/>
      <path id="Trazado_1034757" data-name="Trazado 1034757" d="M76.237,237.541H49.392a2.88,2.88,0,0,1-2.874-2.874v-28.5q-.837.381-1.644.814v27.683a4.533,4.533,0,0,0,4.518,4.518H81.43a4.533,4.533,0,0,0,4.518-4.518v-10.3a28.47,28.47,0,0,0-1.633-4.327l-.012.014v9.062a.87.87,0,0,1-.285.645L76.9,237.224l-.011.013,0,0,0,0-.01.012,0,0-.01.011,0,0,0,0-.012.012h0l-.012.012,0,0h0l-.012.012,0,0,0,0-.009.008h0l0,0-.012.01,0,0,0,0-.012.009,0,0h0l-.013.01h0l0,0-.012.009,0,0h0l-.01.007-.007,0,0,0-.01.006,0,0-.011.007,0,0h0l-.012.007-.006,0-.013.007-.007,0h0l-.01.006h0l-.014.007,0,0,0,0-.012.005-.006,0-.015.006-.005,0h0l-.011,0h-.006l-.017.006h0l-.014,0H76.51l-.015,0-.007,0-.014,0-.005,0-.016,0h-.006l-.016,0h0l-.015,0h-.007l-.012,0h-.012l-.012,0H76.36l-.016,0h0l-.015,0h-.076Z" transform="translate(-12.802 -167.364)" fill="#4c84b6" fill-rule="evenodd"/>
      <path id="Trazado_1034758" data-name="Trazado 1034758" d="M317.9,404.735h-3.167a1.135,1.135,0,0,0-1.129,1.129v3.379Z" transform="translate(-249.303 -342.114)" fill="#9b999c" fill-rule="evenodd"/>
      <path id="Trazado_1034759" data-name="Trazado 1034759" d="M343.237,230.248a.871.871,0,0,1,.095-.115L351.694,220q-.309-.358-.66-.715-.307-.312-.639-.616l-9.5,11.5q.405.366.771.739.28.286.541.577Z" transform="translate(-273.325 -178.365)" fill="#fccb68" fill-rule="evenodd"/>
      <path id="Trazado_1034760" data-name="Trazado 1034760" d="M343.237,296.33a.871.871,0,0,1,.095-.115l.642-.777q-.478-.858-1.011-1.679l-2.063,2.5q.405.366.771.739.28.286.541.577Z" transform="translate(-273.325 -244.446)" fill="#eaae2b" fill-rule="evenodd"/>
      <path id="Trazado_1034761" data-name="Trazado 1034761" d="M323.533,204.356a.872.872,0,0,1-.095.115l-6.559,7.947q.331.2.667.421.434.288.873.618l9.5-11.5q-.36-.267-.725-.509-.413-.274-.829-.512Z" transform="translate(-252.185 -162.752)" fill="#fccb68" fill-rule="evenodd"/>
      <path id="Trazado_1034762" data-name="Trazado 1034762" d="M319.615,269.073l-2.736,3.314q.331.2.667.421.434.288.873.618l2.373-2.875Q320.228,269.792,319.615,269.073Z" transform="translate(-252.185 -222.722)" fill="#eaae2b" fill-rule="evenodd"/>
      <path id="Trazado_1034763" data-name="Trazado 1034763" d="M301.9,66.879h5.731a2.88,2.88,0,0,1,2.874,2.874V82.017l1.644-1.992V69.753a4.533,4.533,0,0,0-4.518-4.518H301.9Z" transform="translate(-239.002 -43.33)" fill="#6aa8dc" fill-rule="evenodd"/>
      <path id="Trazado_1034764" data-name="Trazado 1034764" d="M149.107,33.191h-4.23v4.657h17.087V33.191h-4.23v0a.869.869,0,0,1-.855-.716,2.066,2.066,0,0,0-1.04-1.3,4.989,4.989,0,0,0-4.837,0,2.109,2.109,0,0,0-1.028,1.245A.872.872,0,0,1,149.107,33.191Z" transform="translate(-100.811 -12.8)" fill="#5086c5" fill-rule="evenodd"/>
      <path id="Trazado_1034765" data-name="Trazado 1034765" d="M159.245,161.188l-3.559-6.164a1.189,1.189,0,0,0-1.086-.626,1.271,1.271,0,0,0-.6.139l-.032.02a1.255,1.255,0,0,0-.456.468l-3.559,6.164h0L146.4,167.35a1.239,1.239,0,0,0,1.086,1.88h14.236a1.246,1.246,0,0,0,1.086-1.88l-3.531-6.116c-.01-.015-.019-.029-.028-.045Zm-3.773,5.89a.872.872,0,1,1-1.744,0h0a.872.872,0,1,1,1.744,0Zm0-2.27a.872.872,0,1,1-1.744,0V159.12a.872.872,0,1,1,1.744,0Z" transform="translate(-101.991 -121.8)" fill="#f0ac25" fill-rule="evenodd"/>
      <path id="Trazado_1034766" data-name="Trazado 1034766" d="M159.241,190.03l-.515-.892a28.32,28.32,0,0,0-3.258-1.149v5.661a.872.872,0,1,1-1.744,0v-5.688a.87.87,0,0,1,.092-.391q-1.092-.242-2.214-.4l-1.651,2.86h0l-3.558,6.162a1.239,1.239,0,0,0,1.086,1.88h14.237a1.246,1.246,0,0,0,1.086-1.88l-3.531-6.116c-.01-.014-.019-.029-.028-.045Zm-3.773,5.89a.872.872,0,1,1-1.744,0h0a.872.872,0,1,1,1.744,0Z" transform="translate(-101.986 -150.641)" fill="#ea9e00" fill-rule="evenodd"/>
      <path id="Trazado_1034767" data-name="Trazado 1034767" d="M405.3,184.126q.331.2.667.421a19.017,19.017,0,0,1,2.984,2.463q.281.286.541.577l.608-.736q-.321-.373-.687-.746a16.876,16.876,0,0,0-2.7-2.232q-.4-.262-.794-.492Z" transform="translate(-330.002 -147.308)" fill="#989799" fill-rule="evenodd"/>
      <path id="Trazado_1034768" data-name="Trazado 1034768" d="M419.782,157.444q.314.19.632.4a19.013,19.013,0,0,1,2.984,2.463q.3.3.568.607l.848-1.027a.871.871,0,0,1,.088-.108,2.493,2.493,0,0,0,.563-1.427,1.168,1.168,0,0,0-.357-.966l-2.085-1.721a1.167,1.167,0,0,0-1.016-.169,2.51,2.51,0,0,0-1.338.871Z" transform="translate(-342.747 -122.73)" fill="#e84b54" fill-rule="evenodd"/>
    </g>
  </g>
</svg>
